# xmcd CD database file
#
# Track frame offsets:
#	150
#	20412
#	45076
#	62501
#	82693
#	104298
#	123520
#	152007
#	174074
#	195468
#
# Disc length: 2857 seconds
#
# Revision: 1
# Processed by: cddbd v1.5.2PL0 Copyright (c) Steve Scherf et al.
# Submitted via: CDex 1.51
#
DISCID=630b270a
DTITLE=Jonathan Cain - Namaste
DYEAR=2001
DGENRE=Jazz
TTITLE0=Whenever We Say Good-Bye
TTITLE1=El Matadoor
TTITLE2=I Tell Myself
TTITLE3=Namaste
TTITLE4=Everytime It Rains
TTITLE5=Does It Feel Like Love
TTITLE6=In Over My Heart
TTITLE7=A Walk In The Jungle
TTITLE8=Faces Of Mardi Gras
TTITLE9=In The Rapture
EXTD=YEAR: 2001
EXTT0=
EXTT1=
EXTT2=
EXTT3=
EXTT4=
EXTT5=
EXTT6=
EXTT7=
EXTT8=
EXTT9=
PLAYORDER=
